<svg xmlns="http://www.w3.org/2000/svg" viewBox="0 0 100 100" fill-rule="evenodd"><g class="t-group-origins"><path d="M91.72 42.953h-6.885v-9a1.5 1.5 0 0 0-1.5-1.5H74.74c-.384-4.432-5.737-7.497-11.212-7.98V13.928a1.495 1.495 0 0 0-1.526-1.5c-11.23.195-18.536 3.962-21.734 11.203-6.986.334-14.604 4.037-15.113 8.823h-8.488a1.5 1.5 0 0 0-1.5 1.5v9H8.281a1.5 1.5 0 0 0-1.5 1.5v26.639c0 9.087 7.394 16.48 16.483 16.48h53.477c9.086 0 16.479-7.394 16.479-16.48v-26.64a1.5 1.5 0 0 0-1.5-1.5zM41.283 26.606c.624 0 1.183-.386 1.403-.97 2.367-6.264 8.366-9.677 17.841-10.157v10.419a1.5 1.5 0 0 0 1.5 1.5c4.718 0 9.189 2.392 9.701 5.054H28.18c.698-2.486 6.3-5.846 13.103-5.846zm-23.118 8.847h63.67v7.5h-63.67v-7.5zM90.22 71.092c0 7.434-6.047 13.48-13.479 13.48H23.264c-7.435 0-13.483-6.047-13.483-13.48V45.953h6.855c.01 0 .019.003.029.003s.019-.003.029-.003h66.612c.01 0 .019.003.029.003s.019-.003.029-.003h6.856v25.139z" stroke-width="0" stroke="#9640a8" fill="#9640a8" stroke-width-old="0"/><path d="M27.87 76.877c-5.352 0-9.705-4.354-9.705-9.704V51.265a1.5 1.5 0 1 0-3 0v15.908c0 7.005 5.7 12.704 12.705 12.704a1.5 1.5 0 1 0 0-3z" stroke-width="0" stroke="#9640a8" fill="#9640a8" stroke-width-old="0"/></g></svg>