<svg xmlns="http://www.w3.org/2000/svg" viewBox="0 0 100 100" fill-rule="evenodd"><g class="t-group-origins"><path d="M88.192 41.449c-1.158-4.925-4.113-8.896-8.32-11.181-2.988-1.625-7.383-2.707-11.755-2.896-8.437-.373-31.669-8.34-34.83-9.435l-5.772-10.59a1.5 1.5 0 0 0-1.317-.782h-.001a1.5 1.5 0 0 0-1.317.784L11.829 31.37a1.499 1.499 0 0 0 1.317 2.217c.039 0 .077-.001.115-.004l12.486-.96c3.537 2.915 21.054 17.431 26.429 23.43a80.466 80.466 0 0 1 3.486 4.166c.104.132.2.251.3.376l-12.665 23.32a1.501 1.501 0 0 0 .602 2.034l2.731 1.484-3.494 6.437a1.5 1.5 0 0 0 2.637 1.431l3.494-6.436 2.731 1.484a1.494 1.494 0 0 0 1.142.12 1.5 1.5 0 0 0 .892-.723L66.481 66.83c.77.109 1.548.17 2.333.17 2.015 0 4.067-.361 6.088-1.087 4.7-1.688 8.668-5.159 11.175-9.771 2.507-4.612 3.258-9.831 2.115-14.693zM26.201 11.203l4.31 7.906-5.746 10.579-8.982.69 10.418-19.175zm25.912 75.793-2.719-1.477-.012-.008-.014-.006-2.718-1.477 11.432-21.049c.762.709 1.649 1.355 2.916 2.042.797.433 1.623.789 2.466 1.08L52.113 86.996zM83.442 54.71c-2.155 3.965-5.547 6.941-9.553 8.381-3.947 1.417-8.016 1.166-11.459-.706-2.141-1.161-2.807-2.001-4.414-4.031a83.414 83.414 0 0 0-3.604-4.306c-5.524-6.165-22.724-20.424-26.625-23.637l5.122-9.432c4.913 1.696 26.538 9.011 35.078 9.389 3.939.17 7.847 1.118 10.454 2.535 3.446 1.871 5.872 5.149 6.832 9.231.973 4.146.323 8.612-1.831 12.576z" stroke-width="0" stroke="#9640a8" fill="#9640a8" stroke-width-old="0"/></g></svg>