<svg xmlns="http://www.w3.org/2000/svg" viewBox="0 0 100 100" fill-rule="evenodd"><g class="t-group-origins"><path d="M79.573 5.169H20.427a1.5 1.5 0 0 0-1.5 1.5V29.61a1.5 1.5 0 0 0 1.5 1.5h11.827l9.42 10.832v47.17c0 4.346 3.735 7.882 8.325 7.882 4.591 0 8.326-3.536 8.326-7.882v-47.17l9.422-10.832h11.827a1.5 1.5 0 0 0 1.5-1.5V6.669a1.501 1.501 0 0 0-1.501-1.5zm-23.88 35.227a1.503 1.503 0 0 0-.368.984v47.731c0 2.691-2.39 4.882-5.326 4.882s-5.325-2.19-5.325-4.882v-47.73a1.5 1.5 0 0 0-.368-.984L36.23 31.11h27.541l-8.078 9.286zm22.38-12.286H21.927V8.169h56.146V28.11z" stroke-width="0" stroke="#9640a8" fill="#9640a8" stroke-width-old="0"/><path d="M26.85 18.807h46.3a1.5 1.5 0 1 0 0-3h-46.3a1.5 1.5 0 1 0 0 3z" stroke-width="0" stroke="#9640a8" fill="#9640a8" stroke-width-old="0"/></g></svg>