<svg xmlns="http://www.w3.org/2000/svg" viewBox="0 0 100 100" fill-rule="evenodd"><g class="t-group-origins"><path d="M86.165 96.798c0-19.943-16.224-36.169-36.165-36.169-19.757 0-35.855 15.931-36.15 35.622-.001.1-.015.196-.015.296 0 .02.005.038.006.058 0 .065-.005.128-.005.193a1.5 1.5 0 0 0 1.5 1.5h68.886c.124.033.252.057.386.057.429 0 .813-.182 1.086-.471.289-.273.471-.657.471-1.086zM50 63.629c12.81 0 23.945 7.301 29.467 17.96-3.658-3.351-8.549-5.388-14.014-5.388-5.917 0-11.43 2.486-15.388 6.882-3.958-4.396-9.469-6.882-15.384-6.882-5.481 0-10.388 1.982-14.073 5.245C26.156 70.865 37.248 63.629 50 63.629zm33.032 31.669H16.898c.641-9.119 8.211-16.097 17.783-16.097 5.588 0 10.759 2.603 14.187 7.141.566.75 1.827.75 2.394 0 3.428-4.538 8.601-7.141 14.191-7.141 9.374 0 16.813 6.955 17.579 16.097zM49.397 56.843c11.473 0 20.807-9.334 20.807-20.807 0-7.795-4.315-14.594-10.676-18.157a11.23 11.23 0 0 0 1.148-4.952c0-6.222-5.06-11.283-11.278-11.283-6.221 0-11.283 5.062-11.283 11.283 0 2.117.375 3.529 1.066 5.002-5.756 3.26-9.817 9.173-10.489 16.073a1.46 1.46 0 0 0-.009.174 20.787 20.787 0 0 0-.094 1.859c.001 11.474 9.335 20.808 20.808 20.808zm0-3c-9.819 0-17.807-7.988-17.807-17.807 0-.081.011-.158.012-.239.22.005.446.009.7.009.98 0 2.226-.034 3.778-.089.678-.024 1.233-.044 1.529-.044 5.164 0 9.458-2.84 11.675-7.212 2.559 4.718 8.299 7.216 13.786 7.216.16 0 .721.02 1.425.043 1.198.041 2.062.068 2.697.083.001.078.012.154.012.233 0 9.819-7.988 17.807-17.807 17.807zm17.497-21.049c-.799-.021-1.711-.052-2.297-.071a80.748 80.748 0 0 0-1.526-.045c-5.895 0-12.159-3.426-12.159-9.775 0-2.049 0-3.388-.004-4.597 8.027.678 14.545 6.698 15.986 14.488zM41.116 12.927c0-4.567 3.716-8.283 8.283-8.283 4.564 0 8.278 3.716 8.278 8.283a8.22 8.22 0 0 1-.877 3.687 20.67 20.67 0 0 0-7.403-1.385c-2.647 0-5.171.516-7.502 1.422-.523-1.122-.779-2.138-.779-3.724zm6.768 5.378c.003.908.01 1.328.016 1.694.006.368.011.688.011 1.446 0 6.506-4.332 11.228-10.3 11.228-.316 0-.91.021-1.635.046-.959.034-2.789.098-4.077.087 1.435-7.795 7.954-13.82 15.985-14.501z" stroke-width="0" stroke="#9640a8" fill="#9640a8" stroke-width-old="0"/></g></svg>